HIERARCHY
ROOT hip
{
  OFFSET 0 0 0
  CHANNELS 6 Xposition Yposition Zposition Zrotation Yrotation Xrotation
  JOINT abdomen
  {
    OFFSET 0 20.6881 -0.73152
    CHANNELS 3 Zrotation Xrotation Yrotation
    JOINT chest
    {
      OFFSET 0 11.7043 -0.48768
      CHANNELS 3 Zrotation Xrotation Yrotation
      JOINT neck
      {
        OFFSET 0 22.1894 -2.19456
        CHANNELS 3 Zrotation Xrotation Yrotation
        JOINT head
        {
          OFFSET -0.24384 7.07133 1.2192
          CHANNELS 3 Zrotation Xrotation Yrotation
          JOINT leftEye
          {
            OFFSET 4.14528 8.04674 8.04672
            CHANNELS 3 Zrotation Xrotation Yrotation
            End Site
            {
              OFFSET 1 0 0
            }
          }
          JOINT rightEye
          {
            OFFSET -3.6576 8.04674 8.04672
            CHANNELS 3 Zrotation Xrotation Yrotation
            End Site
            {
              OFFSET 1 0 0
            }
          }
        }
      }
      JOINT rCollar
      {
        OFFSET -2.68224 19.2634 -4.8768
        CHANNELS 3 Zrotation Xrotation Yrotation
        JOINT rShldr
        {
          OFFSET -8.77824 -1.95073 1.46304
          CHANNELS 3 Zrotation Xrotation Yrotation
          JOINT rForeArm
          {
            OFFSET -28.1742 -1.7115 0.48768
            CHANNELS 3 Zrotation Xrotation Yrotation
            JOINT rHand
            {
              OFFSET -22.5879 0.773209 7.07136
              CHANNELS 3 Zrotation Xrotation Yrotation
              JOINT rThumb1
              {
                OFFSET -1.2192 -0.487915 3.41376
                CHANNELS 3 Zrotation Xrotation Yrotation
                JOINT rThumb2
                {
                  OFFSET -3.37035 -0.52449 3.41376
                  CHANNELS 3 Zrotation Xrotation Yrotation
                  End Site
                  {
                    OFFSET -1.78271 -1.18214 1.43049
                  }
                }
              }
              JOINT rIndex1
              {
                OFFSET -7.75947 0.938293 5.60832
                CHANNELS 3 Zrotation Xrotation Yrotation
                JOINT rIndex2
                {
                  OFFSET -2.54057 -0.884171 1.56538
                  CHANNELS 3 Zrotation Xrotation Yrotation
                  End Site
                  {
                    OFFSET -1.62519 -0.234802 1.16502
                  }
                }
              }
              JOINT rMid1
              {
                OFFSET -8.24714 1.18213 3.41376
                CHANNELS 3 Zrotation Xrotation Yrotation
                JOINT rMid2
                {
                  OFFSET -3.10165 -0.590103 1.0647
                  CHANNELS 3 Zrotation Xrotation Yrotation
                  End Site
                  {
                    OFFSET -2.48547 -0.328903 0.83742
                  }
                }
              }
              JOINT rRing1
              {
                OFFSET -8.82822 0.546677 1.51678
                CHANNELS 3 Zrotation Xrotation Yrotation
                JOINT rRing2
                {
                  OFFSET -2.60934 -0.819778 -0.0198488
                  CHANNELS 3 Zrotation Xrotation Yrotation
                  End Site
                  {
                    OFFSET -2.33842 -0.294052 0.168128
                  }
                }
              }
              JOINT rPinky1
              {
                OFFSET -8.27202 -0.0477905 -0.4584
                CHANNELS 3 Zrotation Xrotation Yrotation
                JOINT rPinky2
                {
                  OFFSET -1.82734 -0.647385 -0.700984
                  CHANNELS 3 Zrotation Xrotation Yrotation
                  End Site
                  {
                    OFFSET -1.69225 -0.51767 -0.607171
                  }
                }
              }
            }
          }
        }
      }
      JOINT lCollar
      {
        OFFSET 2.68224 19.2634 -4.8768
        CHANNELS 3 Zrotation Xrotation Yrotation
        JOINT lShldr
        {
          OFFSET 8.77824 -1.95073 1.46304
          CHANNELS 3 Zrotation Xrotation Yrotation
          JOINT lForeArm
          {
            OFFSET 28.1742 -1.7115 0.48768
            CHANNELS 3 Zrotation Xrotation Yrotation
            JOINT lHand
            {
              OFFSET 22.5879 0.773209 7.07136
              CHANNELS 3 Zrotation Xrotation Yrotation
              JOINT lThumb1
              {
                OFFSET 1.2192 -0.487915 3.41376
                CHANNELS 3 Zrotation Xrotation Yrotation
                JOINT lThumb2
                {
                  OFFSET 3.37035 -0.52449 3.41376
                  CHANNELS 3 Zrotation Xrotation Yrotation
                  End Site
                  {
                    OFFSET 1.78271 -1.18214 1.43049
                  }
                }
              }
              JOINT lIndex1
              {
                OFFSET 7.75947 0.938293 5.60832
                CHANNELS 3 Zrotation Xrotation Yrotation
                JOINT lIndex2
                {
                  OFFSET 2.54057 -0.884171 1.56538
                  CHANNELS 3 Zrotation Xrotation Yrotation
                  End Site
                  {
                    OFFSET 1.62519 -0.234802 1.16502
                  }
                }
              }
              JOINT lMid1
              {
                OFFSET 8.24714 1.18213 3.41376
                CHANNELS 3 Zrotation Xrotation Yrotation
                JOINT lMid2
                {
                  OFFSET 3.10165 -0.590103 1.0647
                  CHANNELS 3 Zrotation Xrotation Yrotation
                  End Site
                  {
                    OFFSET 2.48547 -0.328903 0.83742
                  }
                }
              }
              JOINT lRing1
              {
                OFFSET 8.82822 0.546677 1.51678
                CHANNELS 3 Zrotation Xrotation Yrotation
                JOINT lRing2
                {
                  OFFSET 2.60934 -0.819778 -0.0198488
                  CHANNELS 3 Zrotation Xrotation Yrotation
                  End Site
                  {
                    OFFSET 2.33842 -0.294052 0.168128
                  }
                }
              }
              JOINT lPinky1
              {
                OFFSET 8.27202 -0.0477905 -0.4584
                CHANNELS 3 Zrotation Xrotation Yrotation
                JOINT lPinky2
                {
                  OFFSET 1.82734 -0.647385 -0.700984
                  CHANNELS 3 Zrotation Xrotation Yrotation
                  End Site
                  {
                    OFFSET 1.69225 -0.51767 -0.607171
                  }
                }
              }
            }
          }
        }
      }
    }
  }
  JOINT rButtock
  {
    OFFSET -8.77824 4.35084 1.2192
    CHANNELS 3 Zrotation Xrotation Yrotation
    JOINT rThigh
    {
      OFFSET 0 -1.70687 -2.19456
      CHANNELS 3 Zrotation Xrotation Yrotation
      JOINT rShin
      {
        OFFSET 0 -36.8199 0.73152
        CHANNELS 3 Zrotation Xrotation Yrotation
        JOINT rFoot
        {
          OFFSET 0.73152 -45.1104 -5.12064
          CHANNELS 3 Zrotation Xrotation Yrotation
          End Site
          {
            OFFSET -1.1221 -3.69964 12.103
          }
        }
      }
    }
  }
  JOINT lButtock
  {
    OFFSET 8.77824 4.35084 1.2192
    CHANNELS 3 Zrotation Xrotation Yrotation
    JOINT lThigh
    {
      OFFSET 0 -1.70687 -2.19456
      CHANNELS 3 Zrotation Xrotation Yrotation
      JOINT lShin
      {
        OFFSET 0 -36.8199 0.73152
        CHANNELS 3 Zrotation Xrotation Yrotation
        JOINT lFoot
        {
          OFFSET -0.73152 -45.1104 -5.12064
          CHANNELS 3 Zrotation Xrotation Yrotation
          End Site
          {
            OFFSET 1.1221 -3.69964 12.103
          }
        }
      }
    }
  }
}
MOTION
Frames:	7
Frame Time:	0.03333
0.0 0.0 0.0 0.0 0.0 0.0 0.0 0.0 0.0 0.0 0.0 0.0 0.0 0.0 0.0 0.0 0.0 0.0 0.0 0.0 0.0 0.0 0.0 0.0 0.0 0.0 0.0 0.0 0.0 0.0 0.0 0.0 0.0 0.0 0.0 0.0 0.0 0.0 0.0 0.0 0.0 0.0 0.0 0.0 0.0 0.0 0.0 0.0 0.0 0.0 0.0 0.0 0.0 0.0 0.0 0.0 0.0 0.0 0.0 0.0 0.0 0.0 0.0 0.0 0.0 0.0 0.0 0.0 0.0 0.0 0.0 0.0 0.0 0.0 0.0 0.0 0.0 0.0 0.0 0.0 0.0 0.0 0.0 0.0 0.0 0.0 0.0 0.0 0.0 0.0 0.0 0.0 0.0 0.0 0.0 0.0 0.0 0.0 0.0 0.0 0.0 0.0 0.0 0.0 0.0 0.0 0.0 0.0 0.0 0.0 0.0 0.0 0.0 0.0 0.0 0.0 0.0 0.0 0.0 0.0 0.0 0.0 0.0 0.0 0.0 0.0 0.0 0.0 0.0 0.0 0.0 0.0
-1.5977000000000001 27.9113 2.0641 176.172191 28.961832 177.236033 -7.449836 5.506406 -77.276274 2.645533 1.99539 89.901606 -2.544242 75.147806 85.755891 -90.808946 -36.913442 -28.680363 71.877628 -15.102546 -20.726085 -137.155456 28.055683 64.977845 135.77527 -5.652777 -173.220904 37.554042 -16.883403 -177.876208 10.593675 -42.284662 -42.477589 35.132186 -0.533252 72.949685 -71.402996 59.940775 -50.995392 -135.775921 -32.955504 -171.442312 136.180943 20.118032 -63.066418 96.905086 -48.144358 -114.114302 176.897268 -6.200046 118.967799 -27.121271 -64.551838 175.978115 -118.883797 -24.919817 40.831418 141.114381 -53.665247 -79.215037 18.58134 -13.388211 -57.143554 -113.220986 0.605068 90.420787 -101.225935 2.634449 3.684696 20.150944 -2.00652 -8.484101 -88.676325 76.365206 -65.226219 -125.112288 -69.145497 26.934982 -159.411012 -47.129422 32.360079 -31.460676 46.585318 -176.666171 -27.593946 62.934639 66.548835 -174.910938 27.556424 67.442772 -160.865034 -52.96384 125.870833 -159.926898 -60.613021 -170.378058 -156.462117 6.649902 178.891372 39.852331 87.03921 -102.079642 -158.523273 -34.882882 -38.212439 -14.427319 40.035056 -156.708518 11.201018 -19.413781 -81.906987 -27.096228 -12.208762 -6.741288 0.099252 9.573758 -139.328278 -135.791412 68.16484 135.000693 43.076064 4.362268 90.739922 -6.118757 46.527027 -180.0 9.996451 1.719802 64.893348 86.136928 5.978286 -157.985884
-1.1728 50.14999999999999 1.4626000000000001 -176.536721 38.286082 -175.413414 4.000626 3.832261 93.537187 2.849661 1.074403 -110.243751 -17.680682 1.543626 -118.546032 24.460708 25.112203 103.144674 81.981749 -3.674316 -4.227707 -53.782605 -18.130382 34.92825 51.231309 -53.445375 23.864597 -140.991164 -4.902945 -140.500163 12.820062 55.483299 -130.789856 -154.809346 18.925498 99.485192 48.75487 16.933246 -3.489959 149.074837 78.146294 35.136178 33.273134 32.421399 30.281582 174.38989 -0.336761 -118.17355 -6.823985 -8.819194 48.518487 105.867202 -5.794687 -124.774275 -44.343168 0.940945 -1.136812 -46.040554 -28.289938 -174.881738 -161.964715 11.893608 170.320133 -127.727861 -73.157563 -144.524926 12.985655 -71.487856 78.754613 -32.605796 34.039972 11.842257 167.733318 -31.189795 -55.140365 -165.625198 -25.562648 -113.708534 -14.210261 -29.077378 -53.359351 155.698915 32.772839 133.909084 18.248572 -6.845044 123.131754 173.753756 9.358848 -23.137296 -102.483068 72.571906 85.242064 150.236537 17.419051 -92.615723 113.214969 74.490235 -114.178652 -55.057768 -36.19768 -65.934579 137.736346 -5.383525 42.888148 -59.693729 73.490295 121.323546 -33.976437 -13.849868 -60.214117 11.742344 26.714682 136.814363 28.519302 -5.805983 90.521216 -52.599803 4.560135 146.279545 -44.443436 14.583853 -94.799825 36.853517 52.980177 46.694535 -24.36792 15.398048 -87.833103 -145.350892 38.901671 166.667757
-0.3048 67.8933 0.6179 -172.410284 40.375679 -168.76771 8.480205 6.230704 -53.948175 -1.382176 -6.049286 43.303073 -14.643891 2.467847 -90.317767 23.099673 19.221717 90.311237 36.52648 0.707181 2.142706 9.696872 0.32234 3.798734 179.962547 -52.094127 131.636423 -5.166858 65.223218 -32.03031 -55.597536 9.559679 146.706331 24.22257 -53.253545 1.854963 -175.08552 1.785965 78.107352 87.712486 -4.414513 43.021647 -170.689921 -22.979469 119.403004 -60.980837 -84.982448 17.153262 89.102968 -53.287855 72.611428 -68.184759 26.609397 -34.48277 -133.327231 -9.775133 -169.4682 90.757226 45.045725 -95.568486 -35.791813 16.369785 45.510673 -133.381643 76.399751 35.030829 118.153133 -52.416415 150.907088 177.834416 16.217429 137.439371 178.16959 65.068952 -61.308344 -162.318011 -25.550299 -136.463362 164.380744 31.504602 -66.452508 134.047496 -22.532208 -18.806007 -167.97673 12.09492 -68.617552 56.205574 -68.291754 -90.386506 13.987282 69.436489 34.697443 164.208968 20.014483 -56.074084 88.283813 -78.080505 96.617929 -164.453532 -1.497814 167.470471 163.438808 38.1835 71.646011 -65.613437 -63.772359 7.475452 51.337586 37.368003 74.476153 -81.124049 37.493027 -95.429802 -20.864961 37.65609 74.525216 -160.640721 -39.290877 61.195588 86.614295 11.370985 64.387943 -75.648353 20.195565 -48.63855 -35.771136 36.312139 117.18739 -96.348062 25.753347 16.248284
0.22799999999999998 69.27759999999999 1.3098 -168.421306 43.078478 -163.548215 3.448443 9.995788 0.0 -0.084139 -9.496364 -2.98501 -13.667646 9.188672 -65.275808 31.953719 7.192859 77.419337 -10.270385 5.019148 -51.997328 66.453184 -9.672557 -14.719923 -87.915897 44.509159 85.80974 104.381586 -21.607951 73.28874 -9.851163 -6.328452 107.933332 -5.802149 -25.40063 2.153041 -9.353176 -1.267259 -4.780834 -48.854885 70.569964 43.786126 1.053045 -76.044654 -30.035337 -24.495964 64.281979 -124.859102 34.681779 -39.959641 1.264267 -101.059684 -67.385097 -94.776043 -140.362227 3.382977 -169.448276 2.206744 14.008788 -6.54726 -7.777348 -11.116472 18.418308 91.688029 -18.003741 106.02116 147.548156 -35.366862 172.467905 -179.083258 0.977804 139.173235 12.989594 -62.519408 -65.777313 -1.0966 31.169306 8.223487 6.182248 -25.874581 7.596694 -16.451608 -1.851719 0.706714 160.995403 22.844289 -53.51129 113.62629 -37.514171 -53.183307 54.640469 -24.126598 2.226617 62.418882 -69.890833 153.284237 136.12524 36.156074 -148.527029 -29.813688 -39.272409 -26.508504 83.564198 -16.652474 104.911288 -110.8734 -42.484733 -75.098155 -110.537412 73.067491 -70.282911 146.58145 49.702171 -39.975693 -55.712174 46.573961 168.642753 -102.998334 -46.903758 174.855141 -60.240395 67.865838 -39.654963 148.381678 16.262273 -89.83264 -17.944634 -75.038199 36.480789 145.283881 6.896749 -140.612373
-0.0812 61.523 3.5381000000000005 -163.000663 47.629241 -159.233972 0.511098 13.726599 -0.100593 4.400617 -13.934615 6.195144 5.477433 18.976884 98.280279 -32.394613 -3.192931 -70.012326 -119.304681 -21.07419 -35.251033 60.515057 -0.331402 -0.568089 -12.053825 -1.881782 22.087338 80.399093 6.046776 -12.605866 103.950208 38.950904 56.856599 -66.145729 58.599082 61.798346 -173.574847 6.85647 98.224805 97.737015 -16.516211 68.252751 110.61772 -68.470018 81.823268 -169.611512 5.32668 -17.027705 -136.870746 -37.277564 163.197173 -168.891999 -5.968765 125.42612 -151.550526 -1.282302 177.404722 97.242998 -26.849446 46.771049 41.459101 71.349548 -16.056961 -54.050662 -27.962021 50.51528 150.904599 -46.103968 174.952611 155.673886 -3.643278 139.626029 87.734513 -1.972781 21.82562 -33.099571 -38.791791 -11.274713 1.419906 -15.5859 1.091549 140.074873 -37.777989 -103.047478 -17.733587 -50.060363 -50.47296 11.795286 -37.074236 70.501479 -48.150445 -57.35098 -76.587792 9.393706 26.3023 65.040921 126.140389 52.422303 -136.134667 -155.722533 -28.510809 -170.286228 -1.067191 3.941741 4.59793 29.452064 -5.604448 -40.361822 19.804314 -1.992118 32.471677 -46.840864 -11.754319 -180.0 -72.300544 -44.124145 -150.989842 149.825544 53.437002 127.91403 115.424544 28.614785 24.725093 -86.086167 -42.41292 -85.447727 -86.325691 -10.326032 -159.492741 -145.964351 31.547635 91.707448
-1.1344999999999998 55.4345 5.8745 -159.656294 50.263044 -157.597101 0.272626 15.193817 -12.872778 7.952927 -12.343286 22.442122 -13.194558 10.360035 -15.246898 39.035216 -4.685811 59.336458 -104.046997 -11.633645 -14.870356 24.302897 -2.654849 -12.284666 -15.541761 8.231358 23.549084 82.044832 13.805509 0.152266 -144.405089 -28.92516 50.285071 -175.093404 -24.297255 164.122197 -0.773797 -2.534959 -9.229459 -20.970024 54.809328 -0.859468 -177.748562 -18.933995 47.840711 131.89151 -12.079862 -20.337758 -139.67879 21.651682 145.950793 -141.245781 15.936262 122.631274 -154.513649 -25.87967 -177.117382 -103.490028 -22.51735 139.746029 19.979991 37.529126 -23.140123 -45.440171 -13.351105 90.929634 128.95624 -67.167926 149.517877 36.533864 -53.874735 84.632099 2.848821 -37.325617 112.253467 -152.116501 -36.103119 -122.392373 173.87502 -1.013847 -78.190139 82.21237 4.677622 -23.95495 -26.827078 -40.190602 -23.341172 -36.560874 -67.864093 11.15671 -88.158194 -38.696413 -73.73674 77.269596 75.392799 -3.417737 80.155494 71.558999 -84.603972 -97.442225 -53.005611 -124.282331 144.869092 -29.011529 121.589204 25.026183 -13.779311 72.273743 -77.604232 36.973682 -74.527918 87.390273 34.547711 0.0 -55.793953 47.92221 79.52001 -93.835503 24.493321 0.767094 -105.884609 53.473208 -20.295619 -171.705116 -0.537909 92.514077 93.733587 48.110872 67.732638 100.787518 44.520743 -167.974252
